<?xml version="1.0" encoding="UTF-8" standalone="no"?>
<!-- Created with Inkscape (http://www.inkscape.org/) -->

<svg
   version="1.1"
   id="svg316"
   width="356.17392"
   height="356.17392"
   viewBox="0 0 356.17392 356.17392"
   sodipodi:docname="brand.svg"
   inkscape:version="1.2.2 (b0a84865, 2022-12-01)"
   xmlns:inkscape="http://www.inkscape.org/namespaces/inkscape"
   xmlns:sodipodi="http://sodipodi.sourceforge.net/DTD/sodipodi-0.dtd"
   xmlns="http://www.w3.org/2000/svg"
   xmlns:svg="http://www.w3.org/2000/svg">
  <defs
     id="defs320" />
  <sodipodi:namedview
     id="namedview318"
     pagecolor="#ffffff"
     bordercolor="#000000"
     borderopacity="0.25"
     inkscape:showpageshadow="2"
     inkscape:pageopacity="0.0"
     inkscape:pagecheckerboard="0"
     inkscape:deskcolor="#d1d1d1"
     showgrid="false"
     inkscape:zoom="0.66259764"
     inkscape:cx="193.93368"
     inkscape:cy="193.93368"
     inkscape:window-width="1300"
     inkscape:window-height="739"
     inkscape:window-x="92"
     inkscape:window-y="135"
     inkscape:window-maximized="0"
     inkscape:current-layer="g322" />
  <g
     inkscape:groupmode="layer"
     inkscape:label="Image"
     id="g322">
    <path
       style="fill:#000000;stroke-width:0.695652"
       d="m 86.200441,297.38549 c -35.965219,-11.75951 -66.372853,-21.89482 -67.572522,-22.5229 -2.800909,-1.46641 -7.599503,-6.90922 -9.6498098,-10.9453 -3.475602,-6.84182 -5.941203,-18.92451 -5.883835,-28.83377 0.0561,-9.69043 3.04118,-19.61834 7.6474498,-25.43424 l 2.128764,-2.68778 -2.9871988,-0.76326 c -6.871916,-1.75587 -8.05427,-2.83774 -5.564129,-5.09129 1.817326,-1.64465 9.1975968,-4.83453 17.2644528,-7.46199 l 7.035349,-2.29148 0.414215,-5.86949 c 1.14327,-16.20026 -3.505068,-28.12267 -12.170385,-31.21552 -4.118057,-1.46983 -8.2275708,-4.968 -8.2275708,-7.00361 0,-2.60702 1.6837978,-3.39764 16.1635418,-7.58951 1.031156,-0.29851 0.806859,-0.87944 -1.539447,-3.9871 -3.265584,-4.32523 -5.615495,-9.45174 -7.380558,-16.10124 -1.013002,-3.81628 -1.29669,-7.42757 -1.311543,-16.69566 -0.01693,-10.562977 0.15188,-12.320383 1.580487,-16.454129 2.825421,-8.175492 8.028012,-14.300904 14.4542,-17.018049 1.71154,-0.72368 39.550839,-6.279649 101.493188,-14.902312 l 98.76422,-13.748437 60.1923,18.110597 c 33.10577,9.960828 60.74014,18.587008 61.4097,19.169283 2.94205,2.558511 -0.39296,7.202261 -6.64775,9.25648 -4.06677,1.335624 -8.32879,5.817148 -10.14259,10.664946 -1.81422,4.848951 -2.83516,14.163891 -2.34738,21.417241 l 0.36082,5.36519 7.04062,2.18024 c 8.10004,2.5083 16.3493,6.15228 17.72715,7.83067 1.78515,2.17453 0.35012,3.03387 -8.91221,5.33693 l -9.12516,2.26895 1.15737,1.76636 c 5.41164,8.2592 6.19897,11.52141 6.16381,25.53865 -0.0255,10.18622 -0.25518,12.64603 -1.65593,17.73913 -2.09933,7.63311 -5.13211,13.36015 -9.26184,17.48989 -1.817,1.81699 -3.07105,3.44554 -2.78679,3.61899 0.28426,0.17345 1.92553,0.69073 3.64727,1.14952 4.03716,1.07577 4.86957,1.80992 4.86957,4.29478 0,2.56689 -2.38817,4.85172 -6.78194,6.48846 -1.81776,0.67714 -4.25217,1.93432 -5.4098,2.79372 -2.86387,2.12609 -5.7536,7.67459 -6.95853,13.3609 -1.0354,4.88627 -1.32854,14.60566 -0.57755,19.1491 0.41936,2.53707 0.55974,2.64463 5.29018,4.05341 8.15693,2.42924 15.79017,5.57148 17.95067,7.38942 2.0498,1.72479 2.60312,3.26747 1.43166,3.99147 -0.53794,0.33247 -189.51229,46.29674 -194.16209,47.22609 -1.13199,0.22624 -24.56743,-7.11656 -67.130429,-21.03335 z m 66.456709,-1.27674 c 0.012,-2.2 0.31164,-11.66738 0.66572,-21.03862 0.3541,-9.37125 0.42249,-17.25547 0.15199,-17.52051 -0.2705,-0.26503 -28.96744,-9.76688 -63.770979,-21.11521 -66.295985,-21.61703 -65.61114,-21.43173 -69.584464,-18.82831 -6.224193,4.07825 -7.831284,24.15446 -2.98003,37.2273 1.66243,4.47981 6.185566,9.45347 9.268979,10.19221 1.129119,0.27052 29.600765,8.24221 63.270335,17.71488 33.669559,9.47266 61.608689,17.2557 62.086959,17.29564 0.60096,0.0502 0.87634,-1.16294 0.89149,-3.92738 z m 83.18468,-14.80689 c 41.66246,-10.34378 76.86255,-19.10457 78.22244,-19.4684 l 2.47253,-0.66153 -0.50078,-4.00985 c -1.26706,-10.14557 -0.24974,-21.61225 2.53387,-28.56046 0.65781,-1.64196 1.07857,-3.09518 0.93502,-3.22939 -0.14354,-0.13422 -22.91051,4.416 -50.59326,10.11159 -35.44624,7.29287 -53.18954,11.26148 -59.99321,13.41853 -7.87826,2.49775 -10.12324,2.95868 -12.16627,2.4979 -1.90101,-0.42875 -6.13958,0.17566 -17.57201,2.50573 -8.28667,1.68892 -15.74335,3.22666 -16.57038,3.4172 -1.11616,0.25713 -1.6007,1.0193 -1.88008,2.9573 -0.49742,3.45066 -1.37381,39.82827 -0.95952,39.82827 0.17696,0 34.4092,-8.4631 76.07165,-18.80689 z M 191.9994,227.23918 c -0.21585,-3.34782 -0.58704,-12.89565 -0.82488,-21.21739 -0.23784,-8.32174 -0.54845,-15.13044 -0.69025,-15.13044 -0.56739,0 -156.549671,-32.08877 -157.780368,-32.45867 -1.078819,-0.32425 -1.220904,-0.15833 -0.770801,0.90014 3.232179,7.60081 3.410106,8.71724 3.529299,22.14519 l 0.11713,13.19536 77.13654,19.24882 c 42.4251,10.58686 77.70787,19.28373 78.40616,19.32639 1.16606,0.0712 1.2376,-0.41894 0.87717,-6.0094 z m 72.288,-12.00887 c 34.43478,-9.61534 63.3913,-18.03328 64.34782,-18.70652 2.73127,-1.9224 6.01815,-8.00871 7.23498,-13.39699 1.49484,-6.61936 1.47384,-19.03152 -0.0413,-24.43158 -1.41137,-5.03005 -4.46733,-8.53385 -8.02527,-9.20133 -2.13047,-0.39967 -12.33909,2.724 -66.30624,20.28862 l -63.7881,20.76102 0.45568,19.47826 c 0.5131,21.93302 0.67472,23.51145 2.35765,23.02508 0.63586,-0.18376 29.33001,-8.20121 63.7648,-17.81656 z M 163.32638,164.63048 c 0.2018,-1.05217 0.5681,-10.67826 0.81398,-21.3913 l 0.44707,-19.47826 -63.82807,-20.7519 C 30.579573,80.192039 34.011958,81.042091 29.855479,85.449235 c -3.031127,3.213934 -3.922576,6.527472 -4.327903,16.086915 -0.681639,16.07614 3.963299,28.17295 11.509087,29.97312 1.022686,0.24398 29.407258,8.19454 63.076817,17.6679 33.66957,9.47337 61.58383,17.25626 62.03168,17.29533 0.44786,0.0391 0.97941,-0.78984 1.18122,-1.84202 z m 85.92447,-17.41794 77.48519,-19.27771 0.11631,-13.21739 c 0.11837,-13.45282 0.29524,-14.56392 3.52847,-22.167231 0.45107,-1.06073 0.31033,-1.222414 -0.7708,-0.885523 -0.94476,0.294393 -135.59382,28.066324 -156.20405,32.217724 l -1.83795,0.37021 -0.44004,15.75415 c -0.24203,8.66478 -0.62144,18.18024 -0.84315,21.14545 -0.3197,4.27572 -0.2082,5.38579 0.53886,5.36466 0.51808,-0.0147 35.8103,-8.70161 78.42716,-19.30434 z"
       id="path484" />
  </g>
</svg>
